<svg width="215" height="55" viewBox="0 0 862 223" xmlns="http://www.w3.org/2000/svg" xml:space="preserve" style="fill-rule:evenodd;clip-rule:evenodd;stroke-linejoin:round;stroke-miterlimit:2;">
    <g transform="matrix(5.55556,0,0,5.55556,0,0)">
        <g id="g8074">
            <path id="path8076" d="M85.117,39.686C83.997,41.826 100.655,31.321 107.169,29.286C113.683,27.251 123.667,33.638 130.857,33.268C137.987,32.698 156.217,-0.652 154.667,0.638C153.117,1.928 140.19,15.864 129.895,17.808C119.6,19.752 109.378,9.481 105.172,15.088C100.966,20.695 86.236,37.558 85.116,39.688L85.117,39.686Z" style="fill:rgb(255,204,136);"/>
            <g transform="matrix(1,0,0,1,0,21)">
                <g id="text8078">
                    <g transform="matrix(25,0,0,25,0,0)">
                        <path d="M0.278,-0.521C0.31,-0.521 0.34,-0.516 0.367,-0.506C0.394,-0.495 0.418,-0.48 0.438,-0.46C0.457,-0.44 0.472,-0.416 0.484,-0.387C0.495,-0.358 0.5,-0.326 0.5,-0.289C0.5,-0.279 0.5,-0.271 0.499,-0.265C0.498,-0.259 0.496,-0.254 0.494,-0.251C0.492,-0.247 0.489,-0.245 0.486,-0.243C0.482,-0.242 0.477,-0.241 0.472,-0.241L0.155,-0.241C0.158,-0.188 0.172,-0.15 0.197,-0.125C0.222,-0.1 0.254,-0.088 0.295,-0.088C0.315,-0.088 0.332,-0.09 0.347,-0.095C0.361,-0.1 0.374,-0.105 0.385,-0.111C0.396,-0.116 0.405,-0.121 0.413,-0.126C0.421,-0.131 0.429,-0.133 0.437,-0.133C0.442,-0.133 0.446,-0.132 0.45,-0.13C0.454,-0.128 0.457,-0.125 0.46,-0.122L0.496,-0.077C0.482,-0.061 0.467,-0.047 0.45,-0.036C0.432,-0.025 0.415,-0.017 0.396,-0.01C0.378,-0.004 0.359,0.001 0.34,0.004C0.321,0.006 0.302,0.008 0.284,0.008C0.248,0.008 0.215,0.002 0.185,-0.01C0.154,-0.022 0.127,-0.04 0.105,-0.063C0.082,-0.086 0.064,-0.115 0.051,-0.149C0.038,-0.183 0.032,-0.223 0.032,-0.268C0.032,-0.303 0.037,-0.335 0.049,-0.366C0.06,-0.397 0.076,-0.424 0.097,-0.447C0.118,-0.47 0.144,-0.488 0.175,-0.501C0.205,-0.514 0.24,-0.521 0.278,-0.521ZM0.281,-0.433C0.245,-0.432 0.216,-0.422 0.196,-0.402C0.176,-0.382 0.163,-0.353 0.157,-0.316L0.389,-0.316C0.389,-0.332 0.387,-0.347 0.383,-0.361C0.378,-0.375 0.372,-0.387 0.363,-0.398C0.354,-0.409 0.342,-0.417 0.329,-0.423C0.315,-0.429 0.299,-0.432 0.281,-0.433Z" style="fill:rgb(51,50,94);fill-rule:nonzero;"/>
                    </g>
                    <g transform="matrix(25,0,0,25,13.2118,0)">
                        <path d="M0.427,0C0.411,0 0.401,-0.008 0.396,-0.023L0.386,-0.072C0.375,-0.06 0.364,-0.049 0.352,-0.04C0.34,-0.03 0.328,-0.022 0.314,-0.015C0.301,-0.008 0.286,-0.002 0.271,0.002C0.255,0.006 0.239,0.008 0.221,0.008C0.193,0.008 0.167,0.002 0.144,-0.01C0.12,-0.022 0.1,-0.039 0.083,-0.061C0.066,-0.083 0.053,-0.11 0.044,-0.143C0.035,-0.176 0.031,-0.213 0.031,-0.255C0.031,-0.293 0.036,-0.328 0.046,-0.361C0.056,-0.394 0.071,-0.422 0.091,-0.446C0.11,-0.47 0.133,-0.489 0.16,-0.502C0.187,-0.516 0.217,-0.523 0.251,-0.523C0.28,-0.523 0.304,-0.518 0.325,-0.509C0.345,-0.5 0.363,-0.487 0.379,-0.472L0.379,-0.743L0.503,-0.743L0.503,0L0.427,0ZM0.263,-0.091C0.288,-0.09 0.31,-0.096 0.328,-0.107C0.346,-0.117 0.363,-0.132 0.379,-0.152L0.379,-0.382C0.365,-0.399 0.35,-0.411 0.333,-0.418C0.317,-0.425 0.299,-0.428 0.28,-0.429C0.261,-0.428 0.244,-0.425 0.229,-0.418C0.214,-0.411 0.201,-0.4 0.191,-0.386C0.18,-0.372 0.172,-0.354 0.167,-0.332C0.161,-0.31 0.158,-0.285 0.158,-0.255C0.158,-0.225 0.16,-0.2 0.165,-0.179C0.17,-0.158 0.177,-0.141 0.186,-0.128C0.195,-0.115 0.206,-0.105 0.219,-0.099C0.232,-0.093 0.247,-0.09 0.263,-0.091Z" style="fill:rgb(51,50,94);fill-rule:nonzero;"/>
                    </g>
                    <g transform="matrix(25,0,0,25,27.311,0)">
                        <path d="M0.248,0.141C0.244,0.15 0.24,0.156 0.234,0.161C0.228,0.165 0.219,0.168 0.207,0.168L0.115,0.168L0.211,-0.038L0.004,-0.513L0.112,-0.513C0.122,-0.513 0.129,-0.511 0.135,-0.506C0.14,-0.501 0.144,-0.496 0.147,-0.49L0.256,-0.224C0.26,-0.215 0.263,-0.206 0.266,-0.197C0.268,-0.188 0.271,-0.178 0.273,-0.169C0.275,-0.179 0.278,-0.188 0.281,-0.197C0.284,-0.206 0.288,-0.215 0.292,-0.225L0.395,-0.49C0.397,-0.497 0.402,-0.502 0.408,-0.507C0.414,-0.511 0.421,-0.513 0.429,-0.513L0.528,-0.513L0.248,0.141Z" style="fill:rgb(51,50,94);fill-rule:nonzero;"/>
                    </g>
                    <g transform="matrix(25,0,0,25,40.0853,0)">
                        <path d="M0.285,-0.521C0.323,-0.521 0.358,-0.515 0.389,-0.503C0.42,-0.49 0.447,-0.473 0.469,-0.45C0.491,-0.427 0.508,-0.4 0.52,-0.367C0.532,-0.334 0.538,-0.298 0.538,-0.258C0.538,-0.217 0.532,-0.18 0.52,-0.148C0.508,-0.115 0.491,-0.087 0.469,-0.064C0.447,-0.041 0.42,-0.023 0.389,-0.011C0.358,0.001 0.323,0.008 0.285,0.008C0.247,0.008 0.212,0.001 0.181,-0.011C0.149,-0.023 0.122,-0.041 0.1,-0.064C0.078,-0.087 0.061,-0.115 0.049,-0.148C0.037,-0.18 0.031,-0.217 0.031,-0.258C0.031,-0.298 0.037,-0.334 0.049,-0.367C0.061,-0.4 0.078,-0.427 0.1,-0.45C0.122,-0.473 0.149,-0.49 0.181,-0.503C0.212,-0.515 0.247,-0.521 0.285,-0.521ZM0.285,-0.088C0.328,-0.088 0.359,-0.102 0.38,-0.131C0.4,-0.159 0.411,-0.201 0.411,-0.257C0.411,-0.312 0.4,-0.354 0.38,-0.383C0.359,-0.412 0.328,-0.427 0.285,-0.427C0.242,-0.427 0.21,-0.412 0.189,-0.383C0.168,-0.354 0.158,-0.312 0.158,-0.257C0.158,-0.202 0.168,-0.16 0.189,-0.131C0.21,-0.102 0.242,-0.088 0.285,-0.088Z" style="fill:rgb(51,50,94);fill-rule:nonzero;"/>
                    </g>
                    <g transform="matrix(25,0,0,25,54.147,0)">
                        <path d="M0.179,-0.513L0.179,-0.187C0.179,-0.156 0.186,-0.131 0.201,-0.114C0.215,-0.097 0.237,-0.088 0.266,-0.089C0.287,-0.088 0.307,-0.093 0.326,-0.103C0.345,-0.112 0.362,-0.125 0.379,-0.142L0.379,-0.513L0.503,-0.513L0.503,0L0.427,0C0.411,0 0.401,-0.008 0.396,-0.023L0.387,-0.064C0.376,-0.053 0.365,-0.043 0.354,-0.034C0.343,-0.025 0.331,-0.018 0.318,-0.012C0.305,-0.006 0.291,-0.001 0.276,0.003C0.261,0.006 0.246,0.008 0.229,0.008C0.201,0.008 0.176,0.003 0.154,-0.006C0.133,-0.016 0.115,-0.029 0.1,-0.047C0.085,-0.064 0.074,-0.084 0.067,-0.108C0.059,-0.132 0.056,-0.158 0.056,-0.187L0.056,-0.513L0.179,-0.513Z" style="fill:rgb(51,50,94);fill-rule:nonzero;"/>
                    </g>
                    <g transform="matrix(25,0,0,25,68.2088,0)">
                        <path d="M0.427,-0.405C0.423,-0.4 0.419,-0.396 0.416,-0.394C0.412,-0.391 0.407,-0.39 0.401,-0.39C0.394,-0.39 0.388,-0.391 0.382,-0.395C0.376,-0.399 0.369,-0.403 0.361,-0.408C0.352,-0.413 0.342,-0.417 0.331,-0.421C0.319,-0.425 0.305,-0.427 0.288,-0.427C0.266,-0.427 0.247,-0.423 0.231,-0.415C0.215,-0.407 0.201,-0.396 0.19,-0.382C0.179,-0.367 0.171,-0.349 0.166,-0.328C0.161,-0.307 0.158,-0.284 0.158,-0.258C0.158,-0.23 0.161,-0.206 0.167,-0.185C0.173,-0.163 0.181,-0.145 0.192,-0.131C0.203,-0.116 0.216,-0.105 0.232,-0.098C0.248,-0.09 0.265,-0.087 0.285,-0.087C0.305,-0.087 0.321,-0.089 0.333,-0.094C0.345,-0.099 0.355,-0.104 0.364,-0.11C0.372,-0.116 0.379,-0.121 0.385,-0.126C0.391,-0.131 0.398,-0.133 0.406,-0.133C0.416,-0.133 0.424,-0.129 0.429,-0.122L0.464,-0.077C0.45,-0.061 0.436,-0.047 0.42,-0.036C0.404,-0.025 0.387,-0.017 0.37,-0.01C0.353,-0.004 0.335,0.001 0.317,0.004C0.298,0.006 0.28,0.008 0.262,0.008C0.23,0.008 0.201,0.002 0.173,-0.01C0.145,-0.022 0.12,-0.039 0.099,-0.062C0.078,-0.085 0.062,-0.112 0.05,-0.145C0.038,-0.178 0.032,-0.216 0.032,-0.258C0.032,-0.295 0.037,-0.33 0.048,-0.362C0.059,-0.394 0.075,-0.422 0.096,-0.446C0.117,-0.469 0.142,-0.488 0.174,-0.501C0.205,-0.514 0.24,-0.521 0.281,-0.521C0.319,-0.521 0.352,-0.515 0.381,-0.503C0.41,-0.49 0.436,-0.472 0.459,-0.45L0.427,-0.405Z" style="fill:rgb(51,50,94);fill-rule:nonzero;"/>
                    </g>
                    <g transform="matrix(25,0,0,25,79.983,0)">
                        <path d="M0.468,0L0.413,0C0.401,0 0.392,-0.002 0.385,-0.005C0.378,-0.009 0.373,-0.016 0.37,-0.027L0.359,-0.063C0.346,-0.051 0.333,-0.041 0.321,-0.032C0.308,-0.023 0.295,-0.016 0.282,-0.01C0.269,-0.004 0.255,0.001 0.24,0.004C0.225,0.007 0.208,0.008 0.19,0.008C0.168,0.008 0.148,0.005 0.13,-0.001C0.111,-0.007 0.095,-0.015 0.082,-0.027C0.069,-0.039 0.059,-0.053 0.052,-0.071C0.044,-0.088 0.041,-0.108 0.041,-0.131C0.041,-0.15 0.046,-0.169 0.056,-0.188C0.066,-0.207 0.083,-0.224 0.107,-0.239C0.13,-0.254 0.162,-0.267 0.201,-0.277C0.24,-0.287 0.289,-0.293 0.348,-0.294L0.348,-0.324C0.347,-0.358 0.34,-0.384 0.326,-0.4C0.311,-0.417 0.29,-0.425 0.263,-0.425C0.243,-0.425 0.226,-0.423 0.213,-0.418C0.199,-0.413 0.188,-0.408 0.178,-0.402C0.168,-0.396 0.159,-0.391 0.151,-0.387C0.142,-0.382 0.133,-0.38 0.123,-0.38C0.115,-0.38 0.108,-0.382 0.102,-0.386C0.095,-0.39 0.091,-0.396 0.087,-0.402L0.065,-0.442C0.124,-0.496 0.195,-0.523 0.278,-0.523C0.308,-0.523 0.335,-0.518 0.358,-0.508C0.382,-0.498 0.402,-0.484 0.418,-0.467C0.434,-0.449 0.447,-0.428 0.455,-0.404C0.464,-0.38 0.468,-0.353 0.468,-0.324L0.468,0ZM0.228,-0.077C0.241,-0.077 0.252,-0.078 0.263,-0.081C0.274,-0.083 0.284,-0.086 0.293,-0.091C0.303,-0.096 0.312,-0.101 0.321,-0.108C0.33,-0.115 0.339,-0.123 0.348,-0.133L0.348,-0.219C0.312,-0.217 0.281,-0.214 0.257,-0.21C0.233,-0.205 0.214,-0.2 0.199,-0.193C0.184,-0.186 0.174,-0.177 0.168,-0.168C0.162,-0.159 0.159,-0.149 0.159,-0.138C0.159,-0.116 0.165,-0.1 0.178,-0.091C0.191,-0.082 0.207,-0.077 0.228,-0.077Z" style="fill:rgb(51,50,94);fill-rule:nonzero;"/>
                    </g>
                    <g transform="matrix(25,0,0,25,92.9198,0)">
                        <path d="M0.235,0.008C0.19,0.008 0.156,-0.005 0.132,-0.03C0.108,-0.055 0.096,-0.09 0.096,-0.134L0.096,-0.421L0.044,-0.421C0.037,-0.42 0.032,-0.423 0.027,-0.427C0.022,-0.431 0.02,-0.438 0.02,-0.447L0.02,-0.496L0.102,-0.509L0.128,-0.649C0.129,-0.656 0.132,-0.661 0.137,-0.665C0.142,-0.668 0.148,-0.67 0.156,-0.67L0.22,-0.67L0.22,-0.509L0.355,-0.509L0.355,-0.421L0.22,-0.421L0.22,-0.143C0.22,-0.127 0.224,-0.114 0.232,-0.105C0.24,-0.096 0.25,-0.091 0.264,-0.092C0.271,-0.091 0.278,-0.092 0.283,-0.094C0.288,-0.096 0.292,-0.098 0.296,-0.1C0.3,-0.102 0.304,-0.104 0.307,-0.106C0.31,-0.108 0.313,-0.109 0.316,-0.109C0.319,-0.109 0.322,-0.108 0.325,-0.106C0.327,-0.104 0.329,-0.101 0.332,-0.098L0.369,-0.038C0.351,-0.023 0.33,-0.011 0.307,-0.004C0.284,0.004 0.26,0.008 0.235,0.008Z" style="fill:rgb(51,50,94);fill-rule:nonzero;"/>
                    </g>
                    <g transform="matrix(25,0,0,25,102.444,0)">
                        <path d="M0.278,-0.521C0.31,-0.521 0.34,-0.516 0.367,-0.506C0.394,-0.495 0.418,-0.48 0.438,-0.46C0.457,-0.44 0.472,-0.416 0.484,-0.387C0.495,-0.358 0.5,-0.326 0.5,-0.289C0.5,-0.279 0.5,-0.271 0.499,-0.265C0.498,-0.259 0.496,-0.254 0.494,-0.251C0.492,-0.247 0.489,-0.245 0.486,-0.243C0.482,-0.242 0.477,-0.241 0.472,-0.241L0.155,-0.241C0.158,-0.188 0.172,-0.15 0.197,-0.125C0.222,-0.1 0.254,-0.088 0.295,-0.088C0.315,-0.088 0.332,-0.09 0.347,-0.095C0.361,-0.1 0.374,-0.105 0.385,-0.111C0.396,-0.116 0.405,-0.121 0.413,-0.126C0.421,-0.131 0.429,-0.133 0.437,-0.133C0.442,-0.133 0.446,-0.132 0.45,-0.13C0.454,-0.128 0.457,-0.125 0.46,-0.122L0.496,-0.077C0.482,-0.061 0.467,-0.047 0.45,-0.036C0.432,-0.025 0.415,-0.017 0.396,-0.01C0.378,-0.004 0.359,0.001 0.34,0.004C0.321,0.006 0.302,0.008 0.284,0.008C0.248,0.008 0.215,0.002 0.185,-0.01C0.154,-0.022 0.127,-0.04 0.105,-0.063C0.082,-0.086 0.064,-0.115 0.051,-0.149C0.038,-0.183 0.032,-0.223 0.032,-0.268C0.032,-0.303 0.037,-0.335 0.049,-0.366C0.06,-0.397 0.076,-0.424 0.097,-0.447C0.118,-0.47 0.144,-0.488 0.175,-0.501C0.205,-0.514 0.24,-0.521 0.278,-0.521ZM0.281,-0.433C0.245,-0.432 0.216,-0.422 0.196,-0.402C0.176,-0.382 0.163,-0.353 0.157,-0.316L0.389,-0.316C0.389,-0.332 0.387,-0.347 0.383,-0.361C0.378,-0.375 0.372,-0.387 0.363,-0.398C0.354,-0.409 0.342,-0.417 0.329,-0.423C0.315,-0.429 0.299,-0.432 0.281,-0.433Z" style="fill:rgb(51,50,94);fill-rule:nonzero;"/>
                    </g>
                    <g transform="matrix(25,0,0,25,115.656,0)">
                        <path d="M0.427,0C0.411,0 0.401,-0.008 0.396,-0.023L0.386,-0.072C0.375,-0.06 0.364,-0.049 0.352,-0.04C0.34,-0.03 0.328,-0.022 0.314,-0.015C0.301,-0.008 0.286,-0.002 0.271,0.002C0.255,0.006 0.239,0.008 0.221,0.008C0.193,0.008 0.167,0.002 0.144,-0.01C0.12,-0.022 0.1,-0.039 0.083,-0.061C0.066,-0.083 0.053,-0.11 0.044,-0.143C0.035,-0.176 0.031,-0.213 0.031,-0.255C0.031,-0.293 0.036,-0.328 0.046,-0.361C0.056,-0.394 0.071,-0.422 0.091,-0.446C0.11,-0.47 0.133,-0.489 0.16,-0.502C0.187,-0.516 0.217,-0.523 0.251,-0.523C0.28,-0.523 0.304,-0.518 0.325,-0.509C0.345,-0.5 0.363,-0.487 0.379,-0.472L0.379,-0.743L0.503,-0.743L0.503,0L0.427,0ZM0.263,-0.091C0.288,-0.09 0.31,-0.096 0.328,-0.107C0.346,-0.117 0.363,-0.132 0.379,-0.152L0.379,-0.382C0.365,-0.399 0.35,-0.411 0.333,-0.418C0.317,-0.425 0.299,-0.428 0.28,-0.429C0.261,-0.428 0.244,-0.425 0.229,-0.418C0.214,-0.411 0.201,-0.4 0.191,-0.386C0.18,-0.372 0.172,-0.354 0.167,-0.332C0.161,-0.31 0.158,-0.285 0.158,-0.255C0.158,-0.225 0.16,-0.2 0.165,-0.179C0.17,-0.158 0.177,-0.141 0.186,-0.128C0.195,-0.115 0.206,-0.105 0.219,-0.099C0.232,-0.093 0.247,-0.09 0.263,-0.091Z" style="fill:rgb(51,50,94);fill-rule:nonzero;"/>
                    </g>
                </g>
            </g>
        </g>
    </g>
</svg>
